<mxfile host="" modified="2020-05-28T03:55:06.160Z" agent="5.0 (Windows NT 10.0; Win64; x64) AppleWebKit/537.36 (KHTML, like Gecko) Code/1.45.1 Chrome/78.0.3904.130 Electron/7.2.4 Safari/537.36" etag="J7RiKxwEqtv9TuuMU9e0" version="13.1.3" pages="2">
    <diagram id="oiNll6lm8jhCVWnD3T11" name="Flujo">
        <mxGraphModel dx="2794" dy="714" grid="1" gridSize="10" guides="1" tooltips="1" connect="1" arrows="1" fold="1" page="1" pageScale="1" pageWidth="1100" pageHeight="850" math="0" shadow="0">
            <root>
                <mxCell id="aBBaQqL-x9I-EHan9SO3-0"/>
                <mxCell id="aBBaQqL-x9I-EHan9SO3-1" parent="aBBaQqL-x9I-EHan9SO3-0"/>
                <mxCell id="8Q-4F_0o5Q4_TcvwLZX8-0" style="edgeStyle=orthogonalEdgeStyle;rounded=0;orthogonalLoop=1;jettySize=auto;html=1;entryX=0;entryY=0.5;entryDx=0;entryDy=0;entryPerimeter=0;startArrow=none;startFill=0;endArrow=classic;endFill=1;" edge="1" parent="aBBaQqL-x9I-EHan9SO3-1" source="aBBaQqL-x9I-EHan9SO3-2" target="eGHpwctSJxwils7kjRci-1">
                    <mxGeometry relative="1" as="geometry"/>
                </mxCell>
                <mxCell id="aBBaQqL-x9I-EHan9SO3-2" value="answer = null&lt;br&gt;setAnswer(curso)" style="strokeWidth=2;html=1;shape=mxgraph.flowchart.start_2;whiteSpace=wrap;" vertex="1" parent="aBBaQqL-x9I-EHan9SO3-1">
                    <mxGeometry x="-1070" y="405" width="100" height="100" as="geometry"/>
                </mxCell>
                <mxCell id="jpAnPokvm7uomBNN1RYm-2" style="edgeStyle=orthogonalEdgeStyle;rounded=0;orthogonalLoop=1;jettySize=auto;html=1;entryX=0;entryY=0.5;entryDx=0;entryDy=0;startArrow=none;startFill=0;endArrow=classic;endFill=1;exitX=0.5;exitY=1;exitDx=0;exitDy=0;exitPerimeter=0;" edge="1" parent="aBBaQqL-x9I-EHan9SO3-1" source="eGHpwctSJxwils7kjRci-1" target="jpAnPokvm7uomBNN1RYm-1">
                    <mxGeometry relative="1" as="geometry"/>
                </mxCell>
                <mxCell id="jpAnPokvm7uomBNN1RYm-6" value="no" style="edgeLabel;html=1;align=center;verticalAlign=middle;resizable=0;points=[];" vertex="1" connectable="0" parent="jpAnPokvm7uomBNN1RYm-2">
                    <mxGeometry x="-0.2984" relative="1" as="geometry">
                        <mxPoint as="offset"/>
                    </mxGeometry>
                </mxCell>
                <mxCell id="jpAnPokvm7uomBNN1RYm-4" style="edgeStyle=orthogonalEdgeStyle;rounded=0;orthogonalLoop=1;jettySize=auto;html=1;entryX=0;entryY=0.5;entryDx=0;entryDy=0;startArrow=none;startFill=0;endArrow=classic;endFill=1;exitX=0.5;exitY=0;exitDx=0;exitDy=0;exitPerimeter=0;" edge="1" parent="aBBaQqL-x9I-EHan9SO3-1" source="eGHpwctSJxwils7kjRci-1" target="jpAnPokvm7uomBNN1RYm-3">
                    <mxGeometry relative="1" as="geometry"/>
                </mxCell>
                <mxCell id="jpAnPokvm7uomBNN1RYm-5" value="si" style="edgeLabel;html=1;align=center;verticalAlign=middle;resizable=0;points=[];" vertex="1" connectable="0" parent="jpAnPokvm7uomBNN1RYm-4">
                    <mxGeometry x="-0.4445" relative="1" as="geometry">
                        <mxPoint as="offset"/>
                    </mxGeometry>
                </mxCell>
                <mxCell id="eGHpwctSJxwils7kjRci-1" value="if (answer)" style="strokeWidth=2;html=1;shape=mxgraph.flowchart.decision;whiteSpace=wrap;" vertex="1" parent="aBBaQqL-x9I-EHan9SO3-1">
                    <mxGeometry x="-850" y="395" width="130" height="120" as="geometry"/>
                </mxCell>
                <mxCell id="8spaXFU_HuV6jszfUc03-44" style="edgeStyle=orthogonalEdgeStyle;rounded=0;orthogonalLoop=1;jettySize=auto;html=1;entryX=0;entryY=0.5;entryDx=0;entryDy=0;entryPerimeter=0;startArrow=none;startFill=0;endArrow=classic;endFill=1;" edge="1" parent="aBBaQqL-x9I-EHan9SO3-1" source="jpAnPokvm7uomBNN1RYm-1" target="8spaXFU_HuV6jszfUc03-41">
                    <mxGeometry relative="1" as="geometry"/>
                </mxCell>
                <mxCell id="jpAnPokvm7uomBNN1RYm-1" value="Mostrar opciones" style="rounded=1;whiteSpace=wrap;html=1;absoluteArcSize=1;arcSize=14;strokeWidth=2;" vertex="1" parent="aBBaQqL-x9I-EHan9SO3-1">
                    <mxGeometry x="-680" y="535" width="130" height="60" as="geometry"/>
                </mxCell>
                <mxCell id="8spaXFU_HuV6jszfUc03-33" style="edgeStyle=orthogonalEdgeStyle;rounded=0;orthogonalLoop=1;jettySize=auto;html=1;entryX=0;entryY=0.5;entryDx=0;entryDy=0;entryPerimeter=0;startArrow=none;startFill=0;endArrow=classic;endFill=1;" edge="1" parent="aBBaQqL-x9I-EHan9SO3-1" source="jpAnPokvm7uomBNN1RYm-3" target="8spaXFU_HuV6jszfUc03-20">
                    <mxGeometry relative="1" as="geometry"/>
                </mxCell>
                <mxCell id="jpAnPokvm7uomBNN1RYm-3" value="Mostrar respuesta" style="rounded=1;whiteSpace=wrap;html=1;absoluteArcSize=1;arcSize=14;strokeWidth=2;" vertex="1" parent="aBBaQqL-x9I-EHan9SO3-1">
                    <mxGeometry x="-660" y="265" width="140" height="60" as="geometry"/>
                </mxCell>
                <mxCell id="8spaXFU_HuV6jszfUc03-15" style="edgeStyle=orthogonalEdgeStyle;rounded=0;orthogonalLoop=1;jettySize=auto;html=1;entryX=1;entryY=0.5;entryDx=0;entryDy=0;startArrow=none;startFill=0;endArrow=classic;endFill=1;" edge="1" parent="aBBaQqL-x9I-EHan9SO3-1" source="8spaXFU_HuV6jszfUc03-12" target="8spaXFU_HuV6jszfUc03-14">
                    <mxGeometry relative="1" as="geometry">
                        <Array as="points">
                            <mxPoint x="-80" y="135"/>
                        </Array>
                    </mxGeometry>
                </mxCell>
                <mxCell id="8spaXFU_HuV6jszfUc03-17" value="si" style="edgeLabel;html=1;align=center;verticalAlign=middle;resizable=0;points=[];" vertex="1" connectable="0" parent="8spaXFU_HuV6jszfUc03-15">
                    <mxGeometry x="-0.782" y="-1" relative="1" as="geometry">
                        <mxPoint as="offset"/>
                    </mxGeometry>
                </mxCell>
                <mxCell id="8spaXFU_HuV6jszfUc03-37" value="" style="edgeStyle=orthogonalEdgeStyle;rounded=0;orthogonalLoop=1;jettySize=auto;html=1;startArrow=classic;startFill=1;endArrow=none;endFill=0;entryX=0.5;entryY=1;entryDx=0;entryDy=0;entryPerimeter=0;exitX=0;exitY=0.5;exitDx=0;exitDy=0;exitPerimeter=0;" edge="1" parent="aBBaQqL-x9I-EHan9SO3-1" source="8spaXFU_HuV6jszfUc03-12" target="8spaXFU_HuV6jszfUc03-12">
                    <mxGeometry relative="1" as="geometry">
                        <mxPoint x="-79.99999999999977" y="425" as="targetPoint"/>
                        <Array as="points">
                            <mxPoint x="-160" y="295"/>
                            <mxPoint x="-160" y="365"/>
                            <mxPoint x="-80" y="365"/>
                        </Array>
                    </mxGeometry>
                </mxCell>
                <mxCell id="8spaXFU_HuV6jszfUc03-39" value="no" style="edgeLabel;html=1;align=center;verticalAlign=middle;resizable=0;points=[];" vertex="1" connectable="0" parent="8spaXFU_HuV6jszfUc03-37">
                    <mxGeometry x="-0.2802" relative="1" as="geometry">
                        <mxPoint x="80" y="17.97" as="offset"/>
                    </mxGeometry>
                </mxCell>
                <mxCell id="8spaXFU_HuV6jszfUc03-12" value="Â¿Otro curso?" style="strokeWidth=2;html=1;shape=mxgraph.flowchart.decision;whiteSpace=wrap;" vertex="1" parent="aBBaQqL-x9I-EHan9SO3-1">
                    <mxGeometry x="-130" y="245" width="100" height="100" as="geometry"/>
                </mxCell>
                <mxCell id="8spaXFU_HuV6jszfUc03-16" style="edgeStyle=orthogonalEdgeStyle;rounded=0;orthogonalLoop=1;jettySize=auto;html=1;entryX=0;entryY=0.5;entryDx=0;entryDy=0;entryPerimeter=0;startArrow=none;startFill=0;endArrow=classic;endFill=1;" edge="1" parent="aBBaQqL-x9I-EHan9SO3-1" source="8spaXFU_HuV6jszfUc03-14" target="eGHpwctSJxwils7kjRci-1">
                    <mxGeometry relative="1" as="geometry">
                        <Array as="points">
                            <mxPoint x="-870" y="135"/>
                            <mxPoint x="-870" y="455"/>
                        </Array>
                    </mxGeometry>
                </mxCell>
                <mxCell id="8spaXFU_HuV6jszfUc03-14" value="setAnswer(null)" style="rounded=1;whiteSpace=wrap;html=1;absoluteArcSize=1;arcSize=14;strokeWidth=2;" vertex="1" parent="aBBaQqL-x9I-EHan9SO3-1">
                    <mxGeometry x="-770" y="115" width="100" height="40" as="geometry"/>
                </mxCell>
                <mxCell id="8spaXFU_HuV6jszfUc03-24" style="edgeStyle=orthogonalEdgeStyle;rounded=0;orthogonalLoop=1;jettySize=auto;html=1;entryX=0.5;entryY=1;entryDx=0;entryDy=0;startArrow=none;startFill=0;endArrow=classic;endFill=1;exitX=0.5;exitY=0;exitDx=0;exitDy=0;exitPerimeter=0;" edge="1" parent="aBBaQqL-x9I-EHan9SO3-1" source="8spaXFU_HuV6jszfUc03-20" target="8spaXFU_HuV6jszfUc03-23">
                    <mxGeometry relative="1" as="geometry"/>
                </mxCell>
                <mxCell id="8spaXFU_HuV6jszfUc03-31" value="si" style="edgeLabel;html=1;align=center;verticalAlign=middle;resizable=0;points=[];" vertex="1" connectable="0" parent="8spaXFU_HuV6jszfUc03-24">
                    <mxGeometry x="-0.1701" relative="1" as="geometry">
                        <mxPoint as="offset"/>
                    </mxGeometry>
                </mxCell>
                <mxCell id="8spaXFU_HuV6jszfUc03-34" style="edgeStyle=orthogonalEdgeStyle;rounded=0;orthogonalLoop=1;jettySize=auto;html=1;entryX=0;entryY=0.5;entryDx=0;entryDy=0;entryPerimeter=0;startArrow=none;startFill=0;endArrow=classic;endFill=1;" edge="1" parent="aBBaQqL-x9I-EHan9SO3-1" source="8spaXFU_HuV6jszfUc03-20" target="8spaXFU_HuV6jszfUc03-12">
                    <mxGeometry relative="1" as="geometry"/>
                </mxCell>
                <mxCell id="8spaXFU_HuV6jszfUc03-35" value="no" style="edgeLabel;html=1;align=center;verticalAlign=middle;resizable=0;points=[];" vertex="1" connectable="0" parent="8spaXFU_HuV6jszfUc03-34">
                    <mxGeometry x="-0.2898" y="-9" relative="1" as="geometry">
                        <mxPoint y="-9" as="offset"/>
                    </mxGeometry>
                </mxCell>
                <mxCell id="8spaXFU_HuV6jszfUc03-20" value="Â¿Desea Suscribirse?" style="strokeWidth=2;html=1;shape=mxgraph.flowchart.decision;whiteSpace=wrap;" vertex="1" parent="aBBaQqL-x9I-EHan9SO3-1">
                    <mxGeometry x="-440" y="245" width="100" height="100" as="geometry"/>
                </mxCell>
                <mxCell id="8spaXFU_HuV6jszfUc03-32" style="edgeStyle=orthogonalEdgeStyle;rounded=0;orthogonalLoop=1;jettySize=auto;html=1;entryX=0;entryY=0.5;entryDx=0;entryDy=0;entryPerimeter=0;startArrow=none;startFill=0;endArrow=classic;endFill=1;" edge="1" parent="aBBaQqL-x9I-EHan9SO3-1" source="8spaXFU_HuV6jszfUc03-23" target="8spaXFU_HuV6jszfUc03-12">
                    <mxGeometry relative="1" as="geometry">
                        <Array as="points">
                            <mxPoint x="-160" y="170"/>
                            <mxPoint x="-160" y="295"/>
                        </Array>
                    </mxGeometry>
                </mxCell>
                <mxCell id="8spaXFU_HuV6jszfUc03-23" value="Suscribirse" style="rounded=1;whiteSpace=wrap;html=1;absoluteArcSize=1;arcSize=14;strokeWidth=2;" vertex="1" parent="aBBaQqL-x9I-EHan9SO3-1">
                    <mxGeometry x="-440" y="155" width="100" height="30" as="geometry"/>
                </mxCell>
                <mxCell id="8spaXFU_HuV6jszfUc03-45" style="edgeStyle=orthogonalEdgeStyle;rounded=0;orthogonalLoop=1;jettySize=auto;html=1;entryX=0;entryY=0.5;entryDx=0;entryDy=0;startArrow=none;startFill=0;endArrow=classic;endFill=1;exitX=0.5;exitY=0;exitDx=0;exitDy=0;exitPerimeter=0;" edge="1" parent="aBBaQqL-x9I-EHan9SO3-1" source="8spaXFU_HuV6jszfUc03-41" target="8spaXFU_HuV6jszfUc03-43">
                    <mxGeometry relative="1" as="geometry"/>
                </mxCell>
                <mxCell id="8spaXFU_HuV6jszfUc03-47" value="si" style="edgeLabel;html=1;align=center;verticalAlign=middle;resizable=0;points=[];" vertex="1" connectable="0" parent="8spaXFU_HuV6jszfUc03-45">
                    <mxGeometry x="-0.4285" y="-1" relative="1" as="geometry">
                        <mxPoint x="4.33" y="-1" as="offset"/>
                    </mxGeometry>
                </mxCell>
                <mxCell id="8spaXFU_HuV6jszfUc03-48" style="edgeStyle=orthogonalEdgeStyle;rounded=0;orthogonalLoop=1;jettySize=auto;html=1;entryX=0;entryY=0.5;entryDx=0;entryDy=0;startArrow=none;startFill=0;endArrow=classic;endFill=1;" edge="1" parent="aBBaQqL-x9I-EHan9SO3-1" source="8spaXFU_HuV6jszfUc03-41" target="jpAnPokvm7uomBNN1RYm-1">
                    <mxGeometry relative="1" as="geometry">
                        <Array as="points">
                            <mxPoint x="-420" y="645"/>
                            <mxPoint x="-700" y="645"/>
                            <mxPoint x="-700" y="565"/>
                        </Array>
                    </mxGeometry>
                </mxCell>
                <mxCell id="8spaXFU_HuV6jszfUc03-50" value="no" style="edgeLabel;html=1;align=center;verticalAlign=middle;resizable=0;points=[];" vertex="1" connectable="0" parent="8spaXFU_HuV6jszfUc03-48">
                    <mxGeometry x="-0.9017" y="-1" relative="1" as="geometry">
                        <mxPoint as="offset"/>
                    </mxGeometry>
                </mxCell>
                <mxCell id="8spaXFU_HuV6jszfUc03-41" value="Â¿Curso?" style="strokeWidth=2;html=1;shape=mxgraph.flowchart.decision;whiteSpace=wrap;" vertex="1" parent="aBBaQqL-x9I-EHan9SO3-1">
                    <mxGeometry x="-470" y="515" width="100" height="100" as="geometry"/>
                </mxCell>
                <mxCell id="8spaXFU_HuV6jszfUc03-46" style="edgeStyle=orthogonalEdgeStyle;rounded=0;orthogonalLoop=1;jettySize=auto;html=1;entryX=0;entryY=0.5;entryDx=0;entryDy=0;entryPerimeter=0;startArrow=none;startFill=0;endArrow=classic;endFill=1;" edge="1" parent="aBBaQqL-x9I-EHan9SO3-1" source="8spaXFU_HuV6jszfUc03-43" target="eGHpwctSJxwils7kjRci-1">
                    <mxGeometry relative="1" as="geometry">
                        <Array as="points">
                            <mxPoint x="-215" y="735"/>
                            <mxPoint x="-870" y="735"/>
                            <mxPoint x="-870" y="455"/>
                        </Array>
                    </mxGeometry>
                </mxCell>
                <mxCell id="8spaXFU_HuV6jszfUc03-43" value="setAnswer(curso)" style="rounded=1;whiteSpace=wrap;html=1;absoluteArcSize=1;arcSize=14;strokeWidth=2;" vertex="1" parent="aBBaQqL-x9I-EHan9SO3-1">
                    <mxGeometry x="-280" y="465" width="130" height="60" as="geometry"/>
                </mxCell>
            </root>
        </mxGraphModel>
    </diagram>
    <diagram id="6hGFLwfOUW9BJ-s0fimq" name="Componentes">
        <mxGraphModel dx="1694" dy="714" grid="1" gridSize="10" guides="1" tooltips="1" connect="1" arrows="1" fold="1" page="1" pageScale="1" pageWidth="1100" pageHeight="850" math="0" shadow="0">
            <root>
                <mxCell id="0"/>
                <mxCell id="1" parent="0"/>
                <mxCell id="4" value="OresQuestion" style="rounded=0;whiteSpace=wrap;html=1;" vertex="1" parent="1">
                    <mxGeometry x="180" y="440" width="120" height="60" as="geometry"/>
                </mxCell>
                <mxCell id="11" style="edgeStyle=orthogonalEdgeStyle;rounded=0;orthogonalLoop=1;jettySize=auto;html=1;entryX=0.5;entryY=0;entryDx=0;entryDy=0;" edge="1" parent="1" source="5" target="6">
                    <mxGeometry relative="1" as="geometry"/>
                </mxCell>
                <mxCell id="5" value="OresResponse" style="rounded=0;whiteSpace=wrap;html=1;" vertex="1" parent="1">
                    <mxGeometry x="474" y="440" width="120" height="60" as="geometry"/>
                </mxCell>
                <mxCell id="6" value="OresSubscribe" style="rounded=0;whiteSpace=wrap;html=1;" vertex="1" parent="1">
                    <mxGeometry x="474" y="550" width="120" height="60" as="geometry"/>
                </mxCell>
                <mxCell id="8" style="edgeStyle=orthogonalEdgeStyle;rounded=0;orthogonalLoop=1;jettySize=auto;html=1;entryX=0.5;entryY=0;entryDx=0;entryDy=0;" edge="1" parent="1" source="7" target="4">
                    <mxGeometry relative="1" as="geometry">
                        <Array as="points">
                            <mxPoint x="240" y="320"/>
                        </Array>
                    </mxGeometry>
                </mxCell>
                <mxCell id="34" value="answer, setAnswer" style="edgeLabel;html=1;align=center;verticalAlign=middle;resizable=0;points=[];" vertex="1" connectable="0" parent="8">
                    <mxGeometry x="0.27" y="-1" relative="1" as="geometry">
                        <mxPoint as="offset"/>
                    </mxGeometry>
                </mxCell>
                <mxCell id="9" style="edgeStyle=orthogonalEdgeStyle;rounded=0;orthogonalLoop=1;jettySize=auto;html=1;entryX=0.5;entryY=0;entryDx=0;entryDy=0;exitX=1;exitY=0.5;exitDx=0;exitDy=0;" edge="1" parent="1" source="7" target="5">
                    <mxGeometry relative="1" as="geometry"/>
                </mxCell>
                <mxCell id="35" value="answer" style="edgeLabel;html=1;align=center;verticalAlign=middle;resizable=0;points=[];" vertex="1" connectable="0" parent="9">
                    <mxGeometry x="0.3364" y="5" relative="1" as="geometry">
                        <mxPoint x="-5" as="offset"/>
                    </mxGeometry>
                </mxCell>
                <mxCell id="7" value="Home" style="rounded=0;whiteSpace=wrap;html=1;" vertex="1" parent="1">
                    <mxGeometry x="320" y="290" width="120" height="60" as="geometry"/>
                </mxCell>
                <mxCell id="20" style="edgeStyle=orthogonalEdgeStyle;rounded=0;orthogonalLoop=1;jettySize=auto;html=1;entryX=1;entryY=0.5;entryDx=0;entryDy=0;" edge="1" parent="1" source="13" target="18">
                    <mxGeometry relative="1" as="geometry">
                        <Array as="points">
                            <mxPoint x="890" y="270"/>
                        </Array>
                    </mxGeometry>
                </mxCell>
                <mxCell id="31" value="select" style="edgeLabel;html=1;align=center;verticalAlign=middle;resizable=0;points=[];" vertex="1" connectable="0" parent="20">
                    <mxGeometry x="-0.1604" y="1" relative="1" as="geometry">
                        <mxPoint as="offset"/>
                    </mxGeometry>
                </mxCell>
                <mxCell id="28" style="edgeStyle=orthogonalEdgeStyle;rounded=0;orthogonalLoop=1;jettySize=auto;html=1;entryX=1;entryY=0.5;entryDx=0;entryDy=0;exitX=0.5;exitY=1;exitDx=0;exitDy=0;startArrow=classic;startFill=1;endArrow=none;endFill=0;" edge="1" parent="1" source="13" target="25">
                    <mxGeometry relative="1" as="geometry"/>
                </mxCell>
                <mxCell id="30" value="insert" style="edgeLabel;html=1;align=center;verticalAlign=middle;resizable=0;points=[];" vertex="1" connectable="0" parent="28">
                    <mxGeometry x="-0.2074" relative="1" as="geometry">
                        <mxPoint as="offset"/>
                    </mxGeometry>
                </mxCell>
                <mxCell id="13" value="ores" style="shape=cylinder;whiteSpace=wrap;html=1;boundedLbl=1;backgroundOutline=1;" vertex="1" parent="1">
                    <mxGeometry x="860" y="300" width="60" height="80" as="geometry"/>
                </mxCell>
                <mxCell id="19" style="edgeStyle=orthogonalEdgeStyle;rounded=0;orthogonalLoop=1;jettySize=auto;html=1;entryX=0.5;entryY=0;entryDx=0;entryDy=0;" edge="1" parent="1" source="18" target="7">
                    <mxGeometry relative="1" as="geometry"/>
                </mxCell>
                <mxCell id="32" value="courses" style="edgeLabel;html=1;align=center;verticalAlign=middle;resizable=0;points=[];" vertex="1" connectable="0" parent="19">
                    <mxGeometry x="0.2068" y="-3" relative="1" as="geometry">
                        <mxPoint as="offset"/>
                    </mxGeometry>
                </mxCell>
                <mxCell id="18" value="getServerSideProps" style="rounded=1;whiteSpace=wrap;html=1;" vertex="1" parent="1">
                    <mxGeometry x="534" y="240" width="120" height="60" as="geometry"/>
                </mxCell>
                <mxCell id="27" style="edgeStyle=orthogonalEdgeStyle;rounded=0;orthogonalLoop=1;jettySize=auto;html=1;entryX=1;entryY=0.5;entryDx=0;entryDy=0;startArrow=classic;startFill=1;endArrow=none;endFill=0;" edge="1" parent="1" source="25" target="6">
                    <mxGeometry relative="1" as="geometry"/>
                </mxCell>
                <mxCell id="29" value="http" style="edgeLabel;html=1;align=center;verticalAlign=middle;resizable=0;points=[];" vertex="1" connectable="0" parent="27">
                    <mxGeometry x="0.1156" relative="1" as="geometry">
                        <mxPoint as="offset"/>
                    </mxGeometry>
                </mxCell>
                <mxCell id="25" value="/api/subscribe" style="rounded=1;whiteSpace=wrap;html=1;" vertex="1" parent="1">
                    <mxGeometry x="710" y="470" width="120" height="60" as="geometry"/>
                </mxCell>
            </root>
        </mxGraphModel>
    </diagram>
</mxfile>